<svg xmlns="http://www.w3.org/2000/svg" width="231" height="27" viewBox="0 0 231 27" fill="none"><g id="Frame"><path id="Vector" d="M45.6775 6.40483C43.5682 2.45455 39.4645 0 34.9773 0H1.15057C0.498579 0 0 0.536934 0 1.18892C0 1.49574 0.115057 1.80256 0.345171 1.99432L7.70881 9.3963C8.36079 10.0483 9.24289 10.4318 10.1633 10.4318H34.0185C35.706 10.4318 37.125 11.7741 37.125 13.4616C37.125 15.1491 35.7827 16.5682 34.0952 16.5682H17.642C16.9901 16.5682 16.4915 17.1051 16.4915 17.7571C16.4915 18.0639 16.6065 18.3707 16.8366 18.5625L24.1619 25.9645C24.8139 26.6165 25.696 27 26.6165 27H34.0568C43.7599 27 51.0852 16.6449 45.6775 6.40483Z" fill="#FF3008"></path><path id="Vector_2" d="M61.8238 7.59375V19.4062H64.8537C68.0753 19.3679 70.6449 16.7216 70.6065 13.5C70.6832 10.3551 68.1903 7.7088 65.0454 7.59375C64.9687 7.59375 64.9304 7.59375 64.8537 7.59375H61.8238ZM64.8537 3.91193C70.4915 3.91193 74.7486 8.16903 74.7486 13.5C74.7486 18.831 70.4915 23.1264 64.8537 23.1264H58.1804C57.9119 23.1264 57.7202 22.8963 57.7202 22.6662V4.4105C57.7202 4.14204 57.9503 3.95028 58.1804 3.95028L64.8537 3.91193Z" fill="#FF3008"></path><path id="Vector_3" d="M89.2073 19.8281C92.6974 19.8281 95.5355 17.0284 95.5355 13.5383C95.5355 10.0483 92.7358 7.21023 89.2457 7.21023C85.7556 7.21023 82.9176 10.0099 82.9176 13.5C82.9176 16.99 85.7556 19.7898 89.2073 19.8281ZM89.2073 3.49005C95.1136 3.49005 99.6392 8.05397 99.6392 13.5C99.6392 18.9844 95.1136 23.5099 89.2073 23.5099C83.3011 23.5099 78.8139 18.9844 78.8139 13.5C78.8139 8.01562 83.3395 3.49005 89.2073 3.49005Z" fill="#FF3008"></path><path id="Vector_4" d="M114.06 19.8281C117.55 19.8281 120.349 16.99 120.349 13.5C120.349 10.0099 117.511 7.21023 114.021 7.21023C110.531 7.21023 107.732 10.0483 107.732 13.5C107.732 16.99 110.57 19.8281 114.06 19.8281ZM114.06 3.49005C119.966 3.49005 124.491 8.01562 124.491 13.5C124.491 18.9844 119.928 23.5099 114.06 23.5099C108.192 23.5099 103.628 18.9844 103.628 13.5C103.628 8.01562 108.153 3.49005 114.06 3.49005Z" fill="#FF3008"></path><path id="Vector_5" d="M138.298 7.59375H134.041V12.6562H138.298C139.679 12.7329 140.83 11.6591 140.906 10.2784C140.906 10.2401 140.906 10.2017 140.906 10.2017C140.945 8.82102 139.871 7.6321 138.49 7.59375C138.413 7.59375 138.337 7.59375 138.298 7.59375ZM129.937 4.41051C129.937 4.14204 130.168 3.95029 130.398 3.95029H138.413C142.249 3.95029 145.01 6.75 145.01 10.2784C145.048 12.6562 143.706 14.8423 141.597 15.9162L145.278 22.4361C145.432 22.6662 145.355 22.9347 145.163 23.0881C145.087 23.1648 144.972 23.1648 144.856 23.1648H141.597C141.405 23.1648 141.251 23.0497 141.175 22.8963L137.608 16.4148H134.041V22.6278C134.041 22.8963 133.811 23.0881 133.581 23.0881H130.474C130.206 23.0881 130.014 22.8579 130.014 22.6278L129.937 4.41051Z" fill="#FF3008"></path><path id="Vector_6" d="M155.749 7.70881V19.5213H158.778C162 19.483 164.57 16.8366 164.531 13.6151C164.608 10.4702 162.153 7.82387 158.97 7.70881C158.893 7.70881 158.817 7.70881 158.778 7.70881H155.749ZM158.74 3.98865C164.378 3.98865 168.635 8.24574 168.635 13.6151C168.635 18.9844 164.378 23.2415 158.74 23.2415H152.105C151.837 23.2415 151.645 23.0114 151.645 22.7813V4.48722C151.645 4.21876 151.875 4.02699 152.105 4.02699L158.74 3.98865Z" fill="#FF3008"></path><path id="Vector_7" d="M181.176 8.70598L178.837 15.0341H183.516L181.176 8.70598ZM177.494 18.5625L175.96 22.7813C175.883 22.973 175.692 23.1264 175.5 23.1264H172.202C171.933 23.1648 171.703 22.973 171.665 22.7045C171.665 22.6278 171.665 22.5511 171.703 22.4744L178.875 4.25711C178.952 4.06535 179.143 3.91195 179.335 3.9503H183.055C183.285 3.9503 183.477 4.06535 183.516 4.25711L190.687 22.4744C190.802 22.7045 190.687 23.0114 190.457 23.1264C190.381 23.1648 190.304 23.1648 190.227 23.1648H186.929C186.699 23.1648 186.507 23.0497 186.469 22.8196L184.935 18.6009H177.494V18.5625Z" fill="#FF3008"></path><path id="Vector_8" d="M194.523 9.08949C194.523 6.05966 197.131 3.4517 201.234 3.4517C203.459 3.41335 205.568 4.21876 207.217 5.7145C207.409 5.90626 207.409 6.21307 207.256 6.40483C207.256 6.40483 207.256 6.40483 207.217 6.44319L205.376 8.28409C205.185 8.47585 204.878 8.47585 204.686 8.28409C203.804 7.47869 202.692 7.05682 201.503 7.01847C199.854 7.01847 198.626 7.97727 198.626 9.08949C198.626 12.6562 208.368 10.5852 208.368 17.4503C208.368 20.9403 205.722 23.5483 201.081 23.5483C198.473 23.5866 195.98 22.5895 194.139 20.7486C193.947 20.5568 193.947 20.25 194.101 20.0582C194.101 20.0582 194.101 20.0582 194.139 20.0199L195.903 18.2557C196.095 18.0639 196.402 18.0639 196.594 18.2557C197.706 19.3295 199.24 19.9432 200.774 19.9815C202.845 19.9815 204.187 18.8693 204.187 17.4886C204.226 13.9219 194.523 15.9929 194.523 9.08949Z" fill="#FF3008"></path><path id="Vector_9" d="M226.048 4.37216V11.5824H217.802V4.37216C217.802 4.10369 217.572 3.91193 217.342 3.91193H214.236C213.967 3.91193 213.776 4.14204 213.776 4.37216V22.5895C213.776 22.8579 214.006 23.0497 214.236 23.0497H217.342C217.611 23.0497 217.802 22.8196 217.802 22.5895V15.2642H226.048V22.5895C226.048 22.8579 226.278 23.0497 226.508 23.0497H229.615C229.883 23.0497 230.075 22.8196 230.075 22.5895V4.37216C230.075 4.10369 229.845 3.91193 229.615 3.91193H226.508C226.24 3.91193 226.048 4.10369 226.048 4.37216Z" fill="#FF3008"></path></g></svg>