<svg width="415" height="182" viewBox="0 0 415 182" fill="none" xmlns="http://www.w3.org/2000/svg">
<g clip-path="url(#clip0_25_878)">
<path d="M0.213012 148.525L249.09 148.533L358.342 148.578C376.862 148.573 396.485 148.943 414.908 148.505C414.903 159.443 414.725 170.763 414.938 181.663C413.97 181.875 407.993 181.785 406.633 181.783L387.497 181.75L312.46 181.745L0.248512 181.765C0.0345119 177.87 0.158261 172.968 0.148761 168.973C0.0910114 162.158 0.112512 155.34 0.213012 148.525Z" fill="#FF9A00"/>
<path d="M160.509 154.075C163.213 153.783 166.161 154.217 166.395 157.642C166.573 160.257 164.937 161.962 163.339 163.802C164.294 165.755 165.25 166.883 166.594 168.588C167.777 167.525 168.654 166.37 170.307 166.79C171.64 168.343 169.911 169.655 168.82 170.753C169.745 171.978 172.168 174.62 172.096 175.95C171.034 176.27 170.167 175.675 169.119 175.183C167.898 174.193 167.607 173.842 166.693 172.585C165.453 174.115 164.528 174.833 162.957 175.965C160.994 176.088 159.67 176.035 157.693 175.94C151.66 171.598 153.797 167.033 158.603 163.15C155.651 159.083 155.845 156.225 160.509 154.075Z" fill="#F3F3F3"/>
<path d="M160.31 165.682C161.965 165.987 164.008 169.347 165.035 170.81C163.786 172.152 162.946 172.695 161.376 173.513C158.911 173.578 156.368 172.33 156.999 169.467C157.417 167.572 158.79 166.687 160.31 165.682Z" fill="#FF9A00"/>
<path d="M161.008 156.468C164.724 156.463 164.407 159.358 161.902 161.168C159.483 161.363 158.531 158.12 161.008 156.468Z" fill="#FF9A00"/>
<path d="M107.315 154.25C110.503 154.27 115.706 154.378 117.337 157.765C118.355 159.878 117.424 161.993 116.742 164.068C119.46 167.188 121.395 169.992 118.128 173.652C114.836 176.175 111.44 175.82 107.403 175.985C107.613 169.292 107.332 161.128 107.315 154.25Z" fill="#F3F3F3"/>
<path d="M110.782 166.198C114.389 166.153 118.829 168.09 115.537 171.988C109.885 174.965 110.075 170.143 110.782 166.198Z" fill="#FF9A00"/>
<path d="M110.84 156.57C114.071 157.328 116.61 159.732 113.864 162.775C112.679 163.422 112.186 163.913 110.914 163.35C109.847 161.748 110.563 158.525 110.84 156.57Z" fill="#FF9A00"/>
<path d="M266.422 154.43C270.68 154.537 278.752 154.223 277.937 161.04C277.592 163.92 275.412 165.46 273.212 167.008C274.717 168.82 278.742 173.168 278.862 175.32C277.975 176.403 276.535 175.765 275.647 174.973C273.52 172.063 271.775 169.027 269.367 166.335C269.28 168.215 269.387 174.837 268.597 176C267.837 176.28 268.205 176.268 267.462 176.1C266.005 174.345 266.442 168.7 266.455 166.365C266.5 162.387 266.49 158.407 266.422 154.43Z" fill="#F3F3F3"/>
<path d="M269.607 156.843C273.025 157.025 277.41 159.648 274.13 163.128C267.647 166.923 269.125 160.865 269.607 156.843Z" fill="#FF9A00"/>
<path d="M230.345 165.223C229.715 168.928 229.025 172.278 225.557 174.525C217.07 180.003 207.47 171.43 209.558 162.438C210.948 156.453 218.075 152.565 223.852 154.642C225.57 155.262 229.347 157.17 228.442 159.455C226.035 160.757 223.085 154.573 217.14 157.468C215.02 158.52 213.427 160.4 212.738 162.665C210.711 169.405 217.877 176.08 224.185 172.15C225.375 171.41 226.8 169.3 226.8 167.828C225.025 167.698 222.267 167.843 221.207 166.223C221.37 164.183 224.967 164.722 226.435 164.892L230.345 165.223Z" fill="#F3F3F3"/>
<path d="M226.8 167.828C225.025 167.698 222.268 167.842 221.208 166.222C221.37 164.182 224.968 164.722 226.435 164.892L225.983 165.172L226.318 165.237L226.293 165.477C226.165 166.737 226.19 166.733 226.8 167.828Z" fill="#F3F3F3"/>
<path d="M9.54141 154.315C10.8264 154.375 12.1112 154.45 13.3952 154.533C19.8607 154.983 21.4954 156.853 20.6994 163.258C20.4479 163.62 20.1864 163.975 19.9154 164.323C17.9439 166.828 15.3844 167.003 12.4644 167.345C12.5527 170.135 12.5364 173.075 12.5639 175.878L9.58991 175.915C9.25466 169.113 9.39891 161.143 9.54141 154.315Z" fill="#F3F3F3"/>
<path d="M12.7868 156.862C16.5808 157.127 19.9986 159.095 17.4696 163.17C15.6561 164.318 14.6111 164.187 12.4886 164.245C12.3248 161.887 12.5211 159.205 12.7868 156.862Z" fill="#FF9A00"/>
<path d="M56.8518 153.705C57.8425 153.81 58.1668 153.773 59.0108 154.24C60.7403 157.673 56.6978 174.318 63.9968 173.558C72.4308 172.68 66.8455 157.728 69.695 153.66L70.209 153.608C71.551 154.738 71.5825 155.008 71.659 156.753C71.7898 161.923 73.0678 170.795 69.1153 174.335C66.2035 176.943 60.2343 176.83 58.127 173.518C55.3455 169.145 56.3145 158.703 56.8518 153.705Z" fill="#F3F3F3"/>
<path d="M396.44 154.005C397.398 154.008 397.655 153.945 398.508 154.305C398.985 155.095 398.968 170.56 398.99 172.748C400.895 172.845 403.675 172.305 404.98 173.375C405.363 174.23 405.255 175.163 404.46 175.683C401.605 175.733 398.75 175.815 395.898 175.935C395.928 172.69 395.72 156.03 396.44 154.005Z" fill="#F3F3F3"/>
<path d="M352.52 153.867C353.385 153.91 353.96 153.818 354.58 154.378C355.085 156.248 355.023 169.81 355.05 172.772C356.98 172.782 360.433 172.37 361.413 174.138C361.345 174.888 361.383 175.195 360.965 175.832C358.448 175.712 354.808 175.9 352.205 175.967C352.263 170.852 351.77 158.375 352.52 153.867Z" fill="#F3F3F3"/>
<path d="M313.255 153.848C314.103 153.915 315.305 153.963 315.86 154.59C316.353 157.46 316.138 173.203 315.7 176.098C314.858 176.11 314.083 176.25 313.45 175.748C312.635 173.678 313.19 156.858 313.255 153.848Z" fill="#F3F3F3"/>
<path d="M69.4836 44.9395C82.1333 45.5712 91.8823 43.4452 104.045 50.3652C121.047 60.0386 122.897 85.9688 109.191 99.5107C98.0053 109.664 83.6143 108.766 69.5246 108.727C69.2318 87.6441 69.4198 66.0514 69.4836 44.9395ZM77.7082 101.278C86.8866 101.003 95.6368 100.477 103.037 94.3018C108.022 89.4909 109.847 84.6797 110.067 77.7217C110.273 71.1837 108.626 64.895 103.893 60.1543C96.8875 53.1388 86.9006 52.8096 77.7013 52.5166L77.7082 101.278Z" fill="white"/>
<path d="M229.345 40.7405C230 40.842 230.83 40.9822 231.27 41.4977C233.148 43.7042 232.675 50.65 232.558 53.544C237.355 53.745 244.093 54.2245 248.013 57.4522C251.528 60.3457 248.223 62.9185 244.91 63.5472C241.063 64.277 237.32 64.0227 233.395 63.9497C233.645 68.0827 234.47 72.6312 234.76 76.88C235.835 92.7017 237.455 109.68 237.16 125.482C245.955 120.777 254.09 115.527 264.125 113.605C268.118 112.396 273.303 114.23 269.155 118.822C261.475 127.33 245.633 135.775 234.56 137.155C221.895 138.98 197.115 128.807 190.833 116.725C189.85 115.367 191.387 112.86 192.918 112.797C203.042 112.376 218.69 121.677 226.768 126.33C225.913 105.577 223.82 84.4302 222.853 63.4927C218.845 63.4745 213.258 63.6145 215.361 57.0995C216.068 54.9087 219.593 54.631 221.393 54.058C222.628 53.6652 222.83 51.5332 223.203 50.4317C224.178 46.49 225.165 42.5487 229.345 40.7405Z" fill="white"/>
<path d="M264.817 44.9669C272.867 45.0974 284.812 44.0061 291.752 48.338C295.622 50.7773 298.347 54.6681 299.317 59.1368C301.652 69.9844 295.335 79.1109 284.54 81.2023C286.742 83.6362 288.819 86.9708 290.847 89.6144C295.537 95.7221 299.984 102.622 304.654 108.677C301.809 108.75 298.615 108.952 295.8 108.712C294.5 108.601 294.397 108.231 293.732 107.354C290.815 103.437 278.037 83.1553 275.22 81.9786C274.582 81.7134 274.047 81.8683 273.439 82.1085C272.867 83.015 273.074 105.775 273.047 108.744L264.862 108.65C264.427 87.9424 264.71 65.7578 264.817 44.9669ZM273.057 52.2687C273.115 59.6064 273.312 67.7487 273.047 75.0294C278.164 74.9839 284.029 75.2185 288.337 72.0753C290.694 69.9206 291.827 67.689 291.992 64.504C292.597 52.9095 281.495 52.6464 273.057 52.2687Z" fill="white"/>
<path d="M140.571 42.6042C141.368 43.2162 145.087 52.546 145.762 54.1087L156.858 79.7365C158.594 83.7445 160.583 87.9707 162.186 92.0015C163.257 90.1327 165.799 83.9167 166.776 81.6625L177.095 57.829C179.149 53.0595 181.731 46.5015 184.355 42.1722C187.81 63.7927 192.683 87.0467 197.004 108.679C194.229 108.754 191.287 108.721 188.498 108.735C187.013 98.177 184.687 86.7537 182.879 76.1907C182.487 73.0115 181.683 69.7702 181.265 66.4642C179.542 71.4592 176.061 78.8422 173.85 83.8517L162.361 110.149C159.427 104.636 155.727 95.397 153.171 89.5145C150.169 82.606 145.724 73.5252 143.383 66.6452C142.955 68.538 142.617 70.5967 142.307 72.523C140.361 84.598 137.747 96.6665 135.909 108.746C133.189 108.773 130.38 108.716 127.653 108.693C127.987 105.442 128.916 101.59 129.569 98.3062L132.929 81.1155L137.496 57.5032C138.41 52.759 139.316 47.1815 140.571 42.6042Z" fill="white"/>
<path d="M31.4814 42.3838C32.1831 43.3807 34.2501 47.9868 34.8184 49.2207C37.4393 54.9734 40.0294 60.7398 42.5879 66.5205C48.8379 80.3735 55.9659 94.7533 61.8369 108.685C58.8739 108.74 56.0211 108.828 53.0596 108.652C50.7259 103.774 48.2049 97.8459 46.0537 92.8535L31.6484 92.8379L16.9707 92.8096C16.2795 95.0964 10.9335 106.968 9.75781 108.812C6.90106 108.735 4.0433 108.694 1.18555 108.69C5.72004 97.8627 11.6712 86.0691 16.501 75.2559C21.2659 64.5882 26.396 52.861 31.4814 42.3838ZM31.3701 60.6348C28.2111 68.6157 23.9996 77.3321 20.5996 85.3945L32.2402 85.4189C35.6242 85.3819 39.1691 85.2872 42.5391 85.3135C41.2398 82.4522 32.3256 61.2168 31.3701 60.6348Z" fill="white"/>
<path d="M338.864 42.584C339.662 43.035 340.847 46.1676 341.265 47.1113C342.685 50.3551 344.134 53.5859 345.614 56.8027L360.75 89.8213C363.507 95.896 366.429 102.739 369.422 108.644C366.569 108.807 363.272 108.768 360.425 108.624C358.707 104.041 354.749 97.0022 353.512 92.7715C348.822 92.8432 344.07 92.8204 339.375 92.8369L324.372 92.8291C322.19 98.1796 319.867 103.472 317.407 108.7C314.645 108.803 311.517 108.72 308.725 108.699C312.047 100.563 315.957 92.6569 319.657 84.6777C326.03 70.9308 332.194 56.1109 338.864 42.584ZM338.754 60.3818C337.776 63.7373 334.364 70.5561 332.944 74.0488C332.152 75.998 328.807 83.7949 327.869 85.3086C331.474 85.3923 335.082 85.4187 338.687 85.3867C342.481 85.3802 346.276 85.3417 350.071 85.2715C348.694 82.5173 339.359 60.8341 338.754 60.3818Z" fill="white"/>
<path d="M209.549 0.0614978C219.445 -0.678752 220.517 8.92525 226.6 13.9683C231.22 17.7968 241.475 13.7825 246.867 13.2828C253.235 12.6925 255.092 15.7095 255.627 21.4233C253.847 26.1018 247.492 28.4463 243.102 30.557C242.432 30.8303 241.757 31.0945 241.08 31.3503C232.485 34.5765 216.571 36.741 207.98 32.9705C197.513 28.377 198.183 15.6188 202.556 6.86651C204.214 3.54926 205.869 1.32775 209.549 0.0614978Z" fill="#FF9A00"/>
<path d="M377.742 44.9445C380.1 45.061 383.262 44.9705 385.677 44.9708L385.7 101.217C391.875 101.043 398.587 101.167 404.777 101.2C404.825 103.674 404.815 106.203 404.83 108.682C395.99 108.887 386.605 108.743 377.73 108.745L377.742 44.9445Z" fill="white"/>
</g>
<defs>
<clipPath id="clip0_25_878">
<rect width="415" height="182" fill="white"/>
</clipPath>
</defs>
</svg>
